<svg width="9" height="9" viewBox="0 0 9 9" fill="none" xmlns="http://www.w3.org/2000/svg">
<rect width="9" height="9" fill="#E5E5E5"/>
<rect width="1440" height="4734" transform="translate(-1165 -4559)" fill="#FBFBFB"/>
<rect width="1440" height="746" transform="translate(-1165 -571)" fill="white"/>
<rect x="-1165" y="-571" width="1440" height="746" fill="white"/>
<path fill-rule="evenodd" clip-rule="evenodd" d="M5.83683 3.10985C6.26757 3.10985 6.63421 3.26405 6.93735 3.56173C7.19255 3.82224 7.31482 4.19963 7.31482 4.69928V7.57009H6.23556V5.66685C6.23556 5.15134 6.209 4.8057 6.16651 4.63544C6.11875 4.46546 6.03893 4.33255 5.92197 4.24751C5.80502 4.15716 5.66149 4.11458 5.49142 4.11458C5.2734 4.11458 5.08194 4.18375 4.92249 4.33253C4.76307 4.48142 4.65669 4.6835 4.59301 4.94401C4.56098 5.08198 4.54504 5.37441 4.54504 5.82646V7.57007H3.45533V3.21618H4.54504V3.66805C4.79491 3.46073 5.01824 3.31717 5.22032 3.23214C5.42222 3.15243 5.62431 3.10985 5.83683 3.10985ZM0.451775 9H8.55336C8.7979 9 9 8.7982 9 8.55346V0.451863C9 0.20199 8.7979 0 8.55336 0H0.451775C0.201902 0 0 0.20199 0 0.451863V8.55346C0 8.79819 0.201902 9 0.451775 9ZM2.38152 1.42998C2.57282 1.42998 2.73774 1.49906 2.87596 1.6373C3.01416 1.77553 3.07786 1.9456 3.07786 2.14235C3.07786 2.33371 3.01416 2.49855 2.87596 2.6367C2.74305 2.77494 2.57813 2.8388 2.38683 2.8388C2.19553 2.8388 2.03061 2.76963 1.89241 2.63139C1.75421 2.49325 1.68518 2.32307 1.68518 2.12108C1.68518 1.92973 1.75419 1.77022 1.8871 1.63197C2.0253 1.49906 2.19006 1.42998 2.38152 1.42998ZM1.83401 3.21618H2.92373V7.57009H1.83401V3.21618V3.21618Z" fill="#474747"/>
</svg>
